<mxfile host="app.diagrams.net" modified="2024-06-21T15:37:57.702Z" agent="Mozilla/5.0 (Windows NT 10.0; Win64; x64) AppleWebKit/537.36 (KHTML, like Gecko) Chrome/126.0.0.0 Safari/537.36 Edg/126.0.0.0" etag="ZzJFm6xVYRyRlLXuVpkL" version="24.6.1" type="device">
  <diagram name="Page-1" id="4jBcVKaD-DEeyCsjf0J9">
    <mxGraphModel dx="1113" dy="670" grid="1" gridSize="10" guides="1" tooltips="1" connect="1" arrows="1" fold="1" page="1" pageScale="1" pageWidth="850" pageHeight="1100" math="0" shadow="0">
      <root>
        <mxCell id="0" />
        <mxCell id="1" parent="0" />
        <mxCell id="oorNFSbC0_L-jFTKtZz3-10" style="edgeStyle=orthogonalEdgeStyle;rounded=0;orthogonalLoop=1;jettySize=auto;html=1;" edge="1" parent="1" source="oorNFSbC0_L-jFTKtZz3-1">
          <mxGeometry relative="1" as="geometry">
            <mxPoint x="459.9999999999998" y="157.42000000000007" as="targetPoint" />
          </mxGeometry>
        </mxCell>
        <mxCell id="oorNFSbC0_L-jFTKtZz3-11" value="utp" style="edgeStyle=orthogonalEdgeStyle;rounded=0;orthogonalLoop=1;jettySize=auto;html=1;" edge="1" parent="1" source="oorNFSbC0_L-jFTKtZz3-1" target="oorNFSbC0_L-jFTKtZz3-4">
          <mxGeometry relative="1" as="geometry" />
        </mxCell>
        <mxCell id="oorNFSbC0_L-jFTKtZz3-13" style="edgeStyle=orthogonalEdgeStyle;rounded=0;orthogonalLoop=1;jettySize=auto;html=1;" edge="1" parent="1" source="oorNFSbC0_L-jFTKtZz3-1">
          <mxGeometry relative="1" as="geometry">
            <mxPoint x="79.99999999999977" y="157.42000000000007" as="targetPoint" />
          </mxGeometry>
        </mxCell>
        <mxCell id="oorNFSbC0_L-jFTKtZz3-1" value="" style="image;points=[];aspect=fixed;html=1;align=center;shadow=0;dashed=0;image=img/lib/allied_telesis/switch/Switch_24_port_L2_POE.svg;" vertex="1" parent="1">
          <mxGeometry x="240" y="40" width="80" height="54.84" as="geometry" />
        </mxCell>
        <mxCell id="oorNFSbC0_L-jFTKtZz3-8" value="utp" style="edgeStyle=orthogonalEdgeStyle;rounded=0;orthogonalLoop=1;jettySize=auto;html=1;" edge="1" parent="1" source="oorNFSbC0_L-jFTKtZz3-2">
          <mxGeometry relative="1" as="geometry">
            <mxPoint x="81" y="160" as="targetPoint" />
          </mxGeometry>
        </mxCell>
        <mxCell id="oorNFSbC0_L-jFTKtZz3-2" value="" style="image;aspect=fixed;html=1;points=[];align=center;fontSize=12;image=img/lib/azure2/intune/Device_Compliance.svg;" vertex="1" parent="1">
          <mxGeometry x="50" y="340" width="62" height="68" as="geometry" />
        </mxCell>
        <mxCell id="oorNFSbC0_L-jFTKtZz3-12" value="utp" style="edgeStyle=orthogonalEdgeStyle;rounded=0;orthogonalLoop=1;jettySize=auto;html=1;" edge="1" parent="1" source="oorNFSbC0_L-jFTKtZz3-3" target="oorNFSbC0_L-jFTKtZz3-1">
          <mxGeometry relative="1" as="geometry">
            <mxPoint x="180" y="210" as="targetPoint" />
          </mxGeometry>
        </mxCell>
        <mxCell id="oorNFSbC0_L-jFTKtZz3-3" value="" style="image;aspect=fixed;html=1;points=[];align=center;fontSize=12;image=img/lib/azure2/intune/Device_Compliance.svg;" vertex="1" parent="1">
          <mxGeometry x="249" y="490" width="62" height="68" as="geometry" />
        </mxCell>
        <mxCell id="oorNFSbC0_L-jFTKtZz3-4" value="" style="image;aspect=fixed;html=1;points=[];align=center;fontSize=12;image=img/lib/azure2/intune/Device_Compliance.svg;" vertex="1" parent="1">
          <mxGeometry x="380" y="440" width="55.62" height="61" as="geometry" />
        </mxCell>
        <mxCell id="oorNFSbC0_L-jFTKtZz3-9" value="utp" style="edgeStyle=orthogonalEdgeStyle;rounded=0;orthogonalLoop=1;jettySize=auto;html=1;" edge="1" parent="1" source="oorNFSbC0_L-jFTKtZz3-5">
          <mxGeometry relative="1" as="geometry">
            <mxPoint x="460" y="160" as="targetPoint" />
          </mxGeometry>
        </mxCell>
        <mxCell id="oorNFSbC0_L-jFTKtZz3-5" value="" style="image;aspect=fixed;html=1;points=[];align=center;fontSize=12;image=img/lib/azure2/intune/Device_Compliance.svg;" vertex="1" parent="1">
          <mxGeometry x="690" y="282" width="62" height="68" as="geometry" />
        </mxCell>
        <mxCell id="oorNFSbC0_L-jFTKtZz3-14" value="device 1" style="rounded=0;whiteSpace=wrap;html=1;" vertex="1" parent="1">
          <mxGeometry x="21" y="420" width="120" height="30" as="geometry" />
        </mxCell>
        <mxCell id="oorNFSbC0_L-jFTKtZz3-15" value="device 2" style="rounded=0;whiteSpace=wrap;html=1;" vertex="1" parent="1">
          <mxGeometry x="210" y="570" width="120" height="30" as="geometry" />
        </mxCell>
        <mxCell id="oorNFSbC0_L-jFTKtZz3-16" value="device 3" style="rounded=0;whiteSpace=wrap;html=1;" vertex="1" parent="1">
          <mxGeometry x="370" y="535" width="120" height="30" as="geometry" />
        </mxCell>
        <mxCell id="oorNFSbC0_L-jFTKtZz3-17" value="device 4" style="rounded=0;whiteSpace=wrap;html=1;" vertex="1" parent="1">
          <mxGeometry x="661" y="370" width="120" height="30" as="geometry" />
        </mxCell>
        <mxCell id="oorNFSbC0_L-jFTKtZz3-18" value="switch point&amp;nbsp;" style="rounded=0;whiteSpace=wrap;html=1;" vertex="1" parent="1">
          <mxGeometry x="240" y="10" width="80" height="20" as="geometry" />
        </mxCell>
      </root>
    </mxGraphModel>
  </diagram>
</mxfile>
